<?xml version="1.0" encoding="utf-8"?>
<!-- Generator: Adobe Adobe Illustrator 24.2.0, SVG Export Plug-In . SVG Version: 6.00 Build 0)  -->
<svg version="1.1" id="Ebene_1" xmlns="http://www.w3.org/2000/svg" xmlns:xlink="http://www.w3.org/1999/xlink" x="0px" y="0px"
	 viewBox="0 0 2220 1310" style="enable-background:new 0 0 2220 1310;" xml:space="preserve">
<style type="text/css">
	.st0{fill:url(#SVGID_1_);}
	.st1{fill:url(#SVGID_2_);}
	.st2{fill:url(#SVGID_3_);}
	.st3{fill:url(#SVGID_4_);}
	.st4{fill:url(#SVGID_5_);}
	.st5{fill:url(#SVGID_6_);}
	.st6{fill:url(#SVGID_7_);}
	.st7{fill:url(#SVGID_8_);}
	.st8{fill:url(#SVGID_9_);}
	.st9{fill:url(#SVGID_10_);}
	.st10{fill:url(#SVGID_11_);}
	.st11{fill:url(#SVGID_12_);}
	.st12{fill:url(#SVGID_13_);}
	.st13{fill:url(#SVGID_14_);}
	.st14{fill:url(#SVGID_15_);}
	.st15{fill:url(#SVGID_16_);}
	.st16{fill:url(#SVGID_17_);}
	.st17{fill:url(#SVGID_18_);}
	.st18{fill:url(#SVGID_19_);}
	.st19{fill:url(#SVGID_20_);}
	.st20{fill:url(#SVGID_21_);}
	.st21{fill:url(#SVGID_22_);}
	.st22{fill:url(#SVGID_23_);}
	.st23{fill:url(#SVGID_24_);}
	.st24{fill:url(#SVGID_25_);}
	.st25{fill:url(#SVGID_26_);}
	.st26{fill:url(#SVGID_27_);}
	.st27{fill:url(#SVGID_28_);}
	.st28{fill:url(#SVGID_29_);}
	.st29{fill:url(#SVGID_30_);}
	.st30{fill:url(#SVGID_31_);}
	.st31{fill:url(#SVGID_32_);}
	.st32{fill:url(#SVGID_33_);}
	.st33{fill:url(#SVGID_34_);}
	.st34{fill:url(#SVGID_35_);}
	.st35{fill:url(#SVGID_36_);}
	.st36{fill:url(#SVGID_37_);}
	.st37{fill:url(#SVGID_38_);}
	.st38{fill:#02FE41;}
	.st39{fill:#03FE42;}
</style>
<g>
	<linearGradient id="SVGID_1_" gradientUnits="userSpaceOnUse" x1="128.635" y1="1232.7213" x2="50.1241" y2="1160.0015">
		<stop  offset="0" style="stop-color:#94FEA2"/>
		<stop  offset="1" style="stop-color:#00FF41"/>
	</linearGradient>
	<path class="st0" d="M111.17,1198.23H64.28l-10.53,25.47H38.54l42.73-97.32h12.91l42.81,97.32h-15.14L111.17,1198.23z
		 M68.74,1187.74h38.04l-19.06-45.52L68.74,1187.74z"/>
	<linearGradient id="SVGID_2_" gradientUnits="userSpaceOnUse" x1="242.4601" y1="1218.9467" x2="147.6505" y2="1131.1305">
		<stop  offset="0" style="stop-color:#94FEA2"/>
		<stop  offset="1" style="stop-color:#00FF41"/>
	</linearGradient>
	<path class="st1" d="M238.06,1223.7h-14.83l-56.34-75v75h-14.83v-97.32h14.83l56.49,75.33v-75.33h14.68V1223.7z"/>
	<linearGradient id="SVGID_3_" gradientUnits="userSpaceOnUse" x1="373.0685" y1="1210.0383" x2="268.3312" y2="1113.0266">
		<stop  offset="0" style="stop-color:#94FEA2"/>
		<stop  offset="1" style="stop-color:#00FF41"/>
	</linearGradient>
	<path class="st2" d="M288.4,1193.02l2.15,12.84l3.15-11.56l22.14-67.91h12.45l21.6,67.91l3.07,11.76l2.38-13.1l17.37-66.58h14.83
		l-27.13,97.32h-13.45l-23.06-70.92l-1.77-7.42l-1.77,7.42l-23.9,70.92h-13.45l-27.05-97.32h14.76L288.4,1193.02z"/>
	<linearGradient id="SVGID_4_" gradientUnits="userSpaceOnUse" x1="482.675" y1="1215.4213" x2="395.891" y2="1135.0386">
		<stop  offset="0" style="stop-color:#94FEA2"/>
		<stop  offset="1" style="stop-color:#00FF41"/>
	</linearGradient>
	<path class="st3" d="M467.17,1178.72h-48.5v34.49h56.34v10.49h-71.09v-97.32h70.32v10.49h-55.57v31.35h48.5V1178.72z"/>
	<linearGradient id="SVGID_5_" gradientUnits="userSpaceOnUse" x1="583.7819" y1="1218.9467" x2="488.9723" y2="1131.1305">
		<stop  offset="0" style="stop-color:#94FEA2"/>
		<stop  offset="1" style="stop-color:#00FF41"/>
	</linearGradient>
	<path class="st4" d="M579.38,1223.7h-14.83l-56.34-75v75h-14.83v-97.32h14.83l56.49,75.33v-75.33h14.68V1223.7z"/>
	<linearGradient id="SVGID_6_" gradientUnits="userSpaceOnUse" x1="672.4861" y1="1212.0177" x2="593.7834" y2="1139.1202">
		<stop  offset="0" style="stop-color:#94FEA2"/>
		<stop  offset="1" style="stop-color:#00FF41"/>
	</linearGradient>
	<path class="st5" d="M605.59,1223.7v-97.32h31.59c9.73,0,18.34,1.87,25.82,5.61c7.48,3.74,13.26,9.07,17.33,15.98
		c4.07,6.91,6.14,14.84,6.19,23.79v6.22c0,9.18-2.04,17.23-6.11,24.13c-4.07,6.91-9.89,12.21-17.45,15.91
		c-7.56,3.7-16.36,5.59-26.4,5.68H605.59z M620.34,1136.87v76.34h15.52c11.38,0,20.23-3.08,26.56-9.23
		c6.33-6.16,9.49-14.92,9.49-26.29v-5.69c0-11.06-2.99-19.66-8.95-25.79c-5.97-6.13-14.44-9.24-25.4-9.33H620.34z"/>
	<linearGradient id="SVGID_7_" gradientUnits="userSpaceOnUse" x1="787.9398" y1="1204.1815" x2="705.3589" y2="1127.692">
		<stop  offset="0" style="stop-color:#94FEA2"/>
		<stop  offset="1" style="stop-color:#00FF41"/>
	</linearGradient>
	<path class="st6" d="M787.59,1126.38v66.18c-0.05,9.18-3.37,16.69-9.95,22.53c-6.58,5.84-15.51,9.11-26.78,9.83l-3.92,0.14
		c-12.25,0-22.01-2.88-29.28-8.63c-7.28-5.75-10.96-13.66-11.07-23.73v-66.31h14.6v65.91c0,7.04,2.23,12.51,6.69,16.41
		c4.46,3.9,10.81,5.85,19.06,5.85c8.35,0,14.74-1.94,19.17-5.82s6.65-9.33,6.65-16.38v-65.97H787.59z"/>
	<linearGradient id="SVGID_8_" gradientUnits="userSpaceOnUse" x1="901.2782" y1="1218.9467" x2="806.4686" y2="1131.1305">
		<stop  offset="0" style="stop-color:#94FEA2"/>
		<stop  offset="1" style="stop-color:#00FF41"/>
	</linearGradient>
	<path class="st7" d="M896.88,1223.7h-14.83l-56.34-75v75h-14.83v-97.32h14.83l56.49,75.33v-75.33h14.68V1223.7z"/>
	<linearGradient id="SVGID_9_" gradientUnits="userSpaceOnUse" x1="1004.9283" y1="1211.8777" x2="928.013" y2="1140.6357">
		<stop  offset="0" style="stop-color:#94FEA2"/>
		<stop  offset="1" style="stop-color:#00FF41"/>
	</linearGradient>
	<path class="st8" d="M1005.7,1210.93c-3.79,4.72-9.08,8.26-15.87,10.6c-6.79,2.34-14.69,3.51-23.71,3.51
		c-9.12,0-17.22-1.86-24.29-5.58c-7.07-3.72-12.54-9.01-16.41-15.88c-3.87-6.86-5.85-14.82-5.96-23.86v-8.49
		c0-14.66,3.93-26.02,11.8-34.09c7.86-8.06,18.92-12.1,33.16-12.1c11.68,0,21.08,2.6,28.21,7.79c7.12,5.19,11.48,12.55,13.07,22.09
		h-14.76c-2.77-12.92-11.58-19.38-26.44-19.38c-9.89,0-17.38,3.02-22.48,9.07c-5.1,6.04-7.67,14.79-7.73,26.26v7.96
		c0,10.93,2.87,19.61,8.61,26.06c5.74,6.45,13.5,9.67,23.29,9.67c5.53,0,10.38-0.53,14.53-1.6c4.15-1.07,7.58-2.87,10.3-5.4v-21.81
		h-25.9v-10.5h40.58V1210.93z"/>
	<linearGradient id="SVGID_10_" gradientUnits="userSpaceOnUse" x1="1102.3354" y1="1210.2596" x2="1028.2454" y2="1141.6346">
		<stop  offset="0" style="stop-color:#94FEA2"/>
		<stop  offset="1" style="stop-color:#00FF41"/>
	</linearGradient>
	<path class="st9" d="M1063.27,1180.32c-12.66-3.16-21.86-7.05-27.63-11.66c-5.76-4.61-8.65-10.31-8.65-17.08
		c0-7.66,3.52-14,10.57-19.02c7.04-5.01,16.2-7.52,27.48-7.52c7.69,0,14.54,1.29,20.56,3.88c6.02,2.58,10.68,6.15,13.99,10.69
		c3.3,4.54,4.96,9.51,4.96,14.9h-14.83c0-5.9-2.15-10.54-6.46-13.92c-4.31-3.37-10.38-5.06-18.21-5.06c-7.28,0-12.95,1.4-17.02,4.19
		c-4.07,2.79-6.11,6.66-6.11,11.62c0,3.98,1.93,7.34,5.8,10.08c3.87,2.75,10.45,5.26,19.75,7.54c9.3,2.28,16.57,4.78,21.83,7.52
		c5.25,2.74,9.15,5.94,11.68,9.59c2.54,3.65,3.8,7.95,3.8,12.9c0,7.89-3.53,14.2-10.61,18.95c-7.07,4.75-16.52,7.12-28.36,7.12
		c-7.69,0-14.86-1.28-21.52-3.84c-6.66-2.56-11.8-6.07-15.41-10.53c-3.61-4.46-5.42-9.51-5.42-15.17h14.83
		c0,5.88,2.5,10.53,7.49,13.94c5,3.41,11.67,5.11,20.02,5.11c7.79,0,13.76-1.38,17.91-4.14c4.15-2.76,6.23-6.53,6.23-11.3
		s-1.92-8.46-5.76-11.06C1080.33,1185.43,1073.36,1182.86,1063.27,1180.32z"/>
	<linearGradient id="SVGID_11_" gradientUnits="userSpaceOnUse" x1="1202.4401" y1="1215.4213" x2="1115.6561" y2="1135.0386">
		<stop  offset="0" style="stop-color:#94FEA2"/>
		<stop  offset="1" style="stop-color:#00FF41"/>
	</linearGradient>
	<path class="st10" d="M1186.93,1178.72h-48.5v34.49h56.34v10.49h-71.09v-97.32H1194v10.49h-55.57v31.35h48.5V1178.72z"/>
	<linearGradient id="SVGID_12_" gradientUnits="userSpaceOnUse" x1="1303.547" y1="1218.9467" x2="1208.7374" y2="1131.1305">
		<stop  offset="0" style="stop-color:#94FEA2"/>
		<stop  offset="1" style="stop-color:#00FF41"/>
	</linearGradient>
	<path class="st11" d="M1299.14,1223.7h-14.83l-56.34-75v75h-14.83v-97.32h14.83l56.49,75.33v-75.33h14.68V1223.7z"/>
	<linearGradient id="SVGID_13_" gradientUnits="userSpaceOnUse" x1="1395.877" y1="1192.2025" x2="1320.1375" y2="1122.0497">
		<stop  offset="0" style="stop-color:#94FEA2"/>
		<stop  offset="1" style="stop-color:#00FF41"/>
	</linearGradient>
	<path class="st12" d="M1402.67,1136.87h-35.97v86.83h-14.68v-86.83h-35.89v-10.49h86.54V1136.87z"/>
	<linearGradient id="SVGID_14_" gradientUnits="userSpaceOnUse" x1="1529.2274" y1="1210.0383" x2="1424.4901" y2="1113.0266">
		<stop  offset="0" style="stop-color:#94FEA2"/>
		<stop  offset="1" style="stop-color:#00FF41"/>
	</linearGradient>
	<path class="st13" d="M1444.56,1193.02l2.15,12.84l3.15-11.56l22.14-67.91h12.45l21.6,67.91l3.07,11.76l2.38-13.1l17.37-66.58
		h14.83l-27.13,97.32h-13.45l-23.06-70.92l-1.77-7.42l-1.77,7.42l-23.9,70.92h-13.45l-27.05-97.32h14.76L1444.56,1193.02z"/>
	<linearGradient id="SVGID_15_" gradientUnits="userSpaceOnUse" x1="1596.7582" y1="1201.1868" x2="1540.297" y2="1148.8904">
		<stop  offset="0" style="stop-color:#94FEA2"/>
		<stop  offset="1" style="stop-color:#00FF41"/>
	</linearGradient>
	<path class="st14" d="M1575.91,1223.7h-14.76v-97.32h14.76V1223.7z"/>
	<linearGradient id="SVGID_16_" gradientUnits="userSpaceOnUse" x1="1680.1636" y1="1208.6753" x2="1607.5037" y2="1141.3749">
		<stop  offset="0" style="stop-color:#94FEA2"/>
		<stop  offset="1" style="stop-color:#00FF41"/>
	</linearGradient>
	<path class="st15" d="M1685.2,1192.82c-1.38,10.29-5.75,18.24-13.1,23.83c-7.35,5.59-17.13,8.39-29.32,8.39
		c-13.22,0-23.81-4.12-31.78-12.37c-7.97-8.24-11.95-19.27-11.95-33.09v-9.36c0-9.04,1.86-17,5.57-23.86
		c3.71-6.86,8.98-12.13,15.79-15.81c6.81-3.68,14.71-5.52,23.67-5.52c11.89,0,21.42,2.89,28.59,8.66
		c7.17,5.77,11.35,13.76,12.53,23.96h-14.83c-1.28-7.78-4.06-13.41-8.34-16.9c-4.28-3.48-10.26-5.23-17.95-5.23
		c-9.43,0-16.82,3.03-22.17,9.1c-5.36,6.06-8.03,14.7-8.03,25.89v9.43c0,10.57,2.54,18.98,7.61,25.22
		c5.07,6.24,12.17,9.36,21.29,9.36c8.2,0,14.49-1.61,18.87-4.85c4.38-3.23,7.29-8.86,8.72-16.88H1685.2z"/>
	<linearGradient id="SVGID_17_" gradientUnits="userSpaceOnUse" x1="1794.7648" y1="1219.7517" x2="1700.079" y2="1132.0502">
		<stop  offset="0" style="stop-color:#94FEA2"/>
		<stop  offset="1" style="stop-color:#00FF41"/>
	</linearGradient>
	<path class="st16" d="M1733.77,1178.45l-13.68,12.37v32.89h-14.76v-97.32h14.76v48.13l49.73-48.13h17.83l-44.04,42.98l47.5,54.34
		h-17.68L1733.77,1178.45z"/>
	<linearGradient id="SVGID_18_" gradientUnits="userSpaceOnUse" x1="1868.2299" y1="1227.6439" x2="1783.1832" y2="1148.8706">
		<stop  offset="0" style="stop-color:#94FEA2"/>
		<stop  offset="1" style="stop-color:#00FF41"/>
	</linearGradient>
	<path class="st17" d="M1818.85,1213.21h53.03v10.49h-67.86v-97.32h14.83V1213.21z"/>
	<linearGradient id="SVGID_19_" gradientUnits="userSpaceOnUse" x1="1963.6985" y1="1204.1815" x2="1881.1177" y2="1127.692">
		<stop  offset="0" style="stop-color:#94FEA2"/>
		<stop  offset="1" style="stop-color:#00FF41"/>
	</linearGradient>
	<path class="st18" d="M1963.34,1126.38v66.18c-0.05,9.18-3.37,16.69-9.95,22.53c-6.58,5.84-15.51,9.11-26.78,9.83l-3.92,0.14
		c-12.25,0-22.01-2.88-29.28-8.63c-7.28-5.75-10.96-13.66-11.07-23.73v-66.31h14.6v65.91c0,7.04,2.23,12.51,6.69,16.41
		c4.46,3.9,10.81,5.85,19.06,5.85c8.35,0,14.74-1.94,19.17-5.82s6.65-9.33,6.65-16.38v-65.97H1963.34z"/>
	<linearGradient id="SVGID_20_" gradientUnits="userSpaceOnUse" x1="2077.0369" y1="1218.9467" x2="1982.2273" y2="1131.1305">
		<stop  offset="0" style="stop-color:#94FEA2"/>
		<stop  offset="1" style="stop-color:#00FF41"/>
	</linearGradient>
	<path class="st19" d="M2072.63,1223.7h-14.83l-56.34-75v75h-14.83v-97.32h14.83l56.49,75.33v-75.33h14.68V1223.7z"/>
	<linearGradient id="SVGID_21_" gradientUnits="userSpaceOnUse" x1="2180.687" y1="1211.8777" x2="2103.7717" y2="1140.6357">
		<stop  offset="0" style="stop-color:#94FEA2"/>
		<stop  offset="1" style="stop-color:#00FF41"/>
	</linearGradient>
	<path class="st20" d="M2181.46,1210.93c-3.79,4.72-9.08,8.26-15.87,10.6c-6.79,2.34-14.69,3.51-23.71,3.51
		c-9.12,0-17.22-1.86-24.29-5.58c-7.07-3.72-12.54-9.01-16.41-15.88c-3.87-6.86-5.85-14.82-5.96-23.86v-8.49
		c0-14.66,3.93-26.02,11.8-34.09c7.86-8.06,18.92-12.1,33.16-12.1c11.68,0,21.08,2.6,28.21,7.79c7.12,5.19,11.48,12.55,13.07,22.09
		h-14.76c-2.77-12.92-11.58-19.38-26.44-19.38c-9.89,0-17.38,3.02-22.48,9.07c-5.1,6.04-7.67,14.79-7.73,26.26v7.96
		c0,10.93,2.87,19.61,8.61,26.06c5.74,6.45,13.5,9.67,23.29,9.67c5.53,0,10.38-0.53,14.53-1.6c4.15-1.07,7.58-2.87,10.3-5.4v-21.81
		h-25.9v-10.5h40.58V1210.93z"/>
</g>
<g>
	<linearGradient id="SVGID_22_" gradientUnits="userSpaceOnUse" x1="1904.3823" y1="545.4363" x2="1785.4878" y2="435.3116">
		<stop  offset="0" style="stop-color:#94FEA2"/>
		<stop  offset="1" style="stop-color:#00FF41"/>
	</linearGradient>
	<polygon class="st21" points="1794.39,425.7 1826.17,536.38 1851.59,513.09 1889.72,556.78 1906.1,543.58 1871.39,496.53 
		1899.35,477.39 	"/>
	<g>
		<g>
			<linearGradient id="SVGID_23_" gradientUnits="userSpaceOnUse" x1="1870.4513" y1="497.0974" x2="1661.3295" y2="303.4008">
				<stop  offset="0" style="stop-color:#94FEA2"/>
				<stop  offset="1" style="stop-color:#00FF41"/>
			</linearGradient>
			<path class="st22" d="M1925.45,470.85l-0.71-138.49c0-33.21-27.41-60.13-61.23-60.13h-164.46c-33.81,0-61.23,26.92-61.23,60.13
				v164.3c0,33.21,27.41,60.13,61.23,60.13h110.49l-38.8-164.9L1925.45,470.85z M1861.81,375.8c7.9-2.27,16.19,2.17,18.51,9.94
				c2.32,7.76-2.21,15.9-10.12,18.17c-7.9,2.27-16.19-2.17-18.51-9.94C1849.37,386.22,1853.9,378.08,1861.81,375.8z M1826.07,326.43
				c7.9-2.27,16.19,2.17,18.51,9.94c2.32,7.76-2.21,15.9-10.12,18.17s-16.19-2.17-18.51-9.94
				C1813.63,336.84,1818.16,328.7,1826.07,326.43z M1704.37,454.41c-7.9,2.27-16.19-2.17-18.51-9.94
				c-2.32-7.76,2.21-15.9,10.12-18.17c7.9-2.27,16.19,2.17,18.51,9.94C1716.81,444,1712.28,452.13,1704.37,454.41z M1710.51,386.21
				c-7.9,2.27-16.19-2.17-18.51-9.94s2.21-15.9,10.12-18.17s16.19,2.17,18.51,9.94C1722.94,375.8,1718.41,383.94,1710.51,386.21z
				 M1751.64,501.71c-7.9,2.27-16.19-2.17-18.51-9.94c-2.32-7.76,2.21-15.9,10.12-18.17c7.9-2.27,16.19,2.17,18.51,9.94
				S1759.54,499.44,1751.64,501.71z M1746.35,335.2c-2.32-7.76,2.21-15.9,10.12-18.17s16.19,2.17,18.51,9.94
				c2.32,7.76-2.21,15.9-10.12,18.17C1756.95,347.41,1748.66,342.96,1746.35,335.2z"/>
		</g>
	</g>
</g>
<g>
	<g>
		<g>
			<linearGradient id="SVGID_24_" gradientUnits="userSpaceOnUse" x1="1125.3591" y1="449.4419" x2="843.5231" y2="188.3948">
				<stop  offset="0" style="stop-color:#94FEA2"/>
				<stop  offset="1" style="stop-color:#00FF41"/>
			</linearGradient>
			<path class="st23" d="M733.89,339.07l262.28,0.95l81.34-80.33l158.04-1.92l4.27,8.75c19.74,26.1,65.65,13.05,59.4-25.33
				c-5.94-31.7-56.21-34.79-62.24-1.07l-0.03,0.21l-165.15,0.2l-81.88,81.27l-262.98-1.22l-71.5,70.89l26.39-0.29L733.89,339.07z
				 M1267.86,229.73c10.79,0,19.53,8.59,19.53,19.18s-8.74,19.18-19.53,19.18s-19.53-8.59-19.53-19.18
				S1257.07,229.73,1267.86,229.73z"/>
			<linearGradient id="SVGID_25_" gradientUnits="userSpaceOnUse" x1="1185.839" y1="702.0131" x2="797.3555" y2="342.1849">
				<stop  offset="0" style="stop-color:#94FEA2"/>
				<stop  offset="1" style="stop-color:#00FF41"/>
			</linearGradient>
			<path class="st24" d="M1240.4,546.91l-4.27,8.75l-161.49-0.74l-85.77-84.52l-309.21-1.14l-0.05,21l304.52-0.63l82.5,82.26
				l170.91,1.21l0.03,0.21c6.02,33.72,56.3,30.63,62.23-1.07C1306.04,533.87,1260.13,520.82,1240.4,546.91z M1268.43,583.7
				c-10.79,0-19.53-8.59-19.53-19.18c0-10.59,8.74-19.18,19.53-19.18s19.53,8.59,19.53,19.18
				C1287.96,575.11,1279.22,583.7,1268.43,583.7z"/>
			<linearGradient id="SVGID_26_" gradientUnits="userSpaceOnUse" x1="1431.972" y1="703.016" x2="934.3477" y2="242.0974">
				<stop  offset="0" style="stop-color:#94FEA2"/>
				<stop  offset="1" style="stop-color:#00FF41"/>
			</linearGradient>
			<path class="st25" d="M1539.66,490.55l-4.27,8.75l-163.04-2.92l-273.85-2.04l-75.94-74.26l-254.01,1.02l-14.23,17.98l259.69,0.2
				l79.75,78.28l278.39-3.53l164.65,2.7l0.03,0.21c6.02,33.72,56.3,30.63,62.24-1.07C1605.31,477.5,1559.4,464.45,1539.66,490.55z
				 M1567.7,527.33c-10.79,0-19.53-8.59-19.53-19.18s8.74-19.18,19.53-19.18c10.79,0,19.53,8.59,19.53,19.18
				S1578.49,527.33,1567.7,527.33z"/>
			<linearGradient id="SVGID_27_" gradientUnits="userSpaceOnUse" x1="1333.5591" y1="599.7629" x2="829.6919" y2="133.0619">
				<stop  offset="0" style="stop-color:#94FEA2"/>
				<stop  offset="1" style="stop-color:#00FF41"/>
			</linearGradient>
			<path class="st26" d="M760.79,388.26l268.45,0.81l70.96-72.25l430.78-2.92l4.27,8.75c19.74,26.1,65.65,13.05,59.4-25.33
				c-5.94-31.7-56.21-34.79-62.24-1.07l-0.03,0.21l-443.05,2.7l-68.07,71.44l-269.9,0.61l-43.95,48.42l-69.56,0.02
				c-16.96-50.85-89.52-19.21-63.8,26.86c16.43,27.29,54.47,18.63,64.75-8.27l76.72,0.93L760.79,388.26z M1563.29,285.86
				c10.79,0,19.53,8.59,19.53,19.18s-8.74,19.18-19.53,19.18c-10.79,0-19.53-8.59-19.53-19.18S1552.51,285.86,1563.29,285.86z
				 M603.11,446.93c-10.98,0-19.89-8.82-19.89-19.71c0-10.88,8.9-19.71,19.89-19.71s19.89,8.82,19.89,19.71
				C622.99,438.11,614.09,446.93,603.11,446.93z"/>
			<linearGradient id="SVGID_28_" gradientUnits="userSpaceOnUse" x1="1148.5063" y1="436.1684" x2="1089.9099" y2="381.8941">
				<stop  offset="0" style="stop-color:#94FEA2"/>
				<stop  offset="1" style="stop-color:#00FF41"/>
			</linearGradient>
			<path class="st27" d="M1088.55,414.51c1.26,27.37,12.13,38.76,33.43,40.08c38.04-1.45,40.31-89.02-0.89-90.62
				C1091.71,362.83,1087.54,392.59,1088.55,414.51z M1117.89,439.5c-24.79-3.02-18.04-59.84,0.64-60.47
				C1140.62,378.28,1145.57,442.87,1117.89,439.5z"/>
			<linearGradient id="SVGID_29_" gradientUnits="userSpaceOnUse" x1="1269.238" y1="436.164" x2="1210.6416" y2="381.8897">
				<stop  offset="0" style="stop-color:#94FEA2"/>
				<stop  offset="1" style="stop-color:#00FF41"/>
			</linearGradient>
			<path class="st28" d="M1209.28,414.5c1.26,27.37,12.13,38.76,33.43,40.08c38.04-1.45,40.31-89.02-0.89-90.62
				C1212.44,362.83,1208.27,392.58,1209.28,414.5z M1238.62,439.49c-24.79-3.02-18.04-59.84,0.64-60.47
				C1261.35,378.28,1266.3,442.87,1238.62,439.49z"/>
			<linearGradient id="SVGID_30_" gradientUnits="userSpaceOnUse" x1="1347.3585" y1="436.1683" x2="1288.7621" y2="381.8941">
				<stop  offset="0" style="stop-color:#94FEA2"/>
				<stop  offset="1" style="stop-color:#00FF41"/>
			</linearGradient>
			<path class="st29" d="M1287.4,414.51c1.26,27.37,12.13,38.76,33.43,40.08c38.04-1.45,40.31-89.02-0.89-90.62
				C1290.56,362.83,1286.39,392.59,1287.4,414.51z M1316.74,439.5c-24.79-3.02-18.04-59.84,0.64-60.47
				C1339.47,378.28,1344.42,442.87,1316.74,439.5z"/>
			<linearGradient id="SVGID_31_" gradientUnits="userSpaceOnUse" x1="1453.8865" y1="436.1683" x2="1395.29" y2="381.894">
				<stop  offset="0" style="stop-color:#94FEA2"/>
				<stop  offset="1" style="stop-color:#00FF41"/>
			</linearGradient>
			<path class="st30" d="M1393.93,414.51c1.26,27.37,12.13,38.76,33.43,40.08c38.04-1.45,40.31-89.02-0.89-90.62
				C1397.09,362.83,1392.92,392.59,1393.93,414.51z M1423.27,439.5c-24.79-3.02-18.04-59.84,0.64-60.47
				C1446,378.28,1450.95,442.87,1423.27,439.5z"/>
			<linearGradient id="SVGID_32_" gradientUnits="userSpaceOnUse" x1="1209.5195" y1="433.1308" x2="1149.116" y2="377.1827">
				<stop  offset="0" style="stop-color:#94FEA2"/>
				<stop  offset="1" style="stop-color:#00FF41"/>
			</linearGradient>
			<polygon class="st31" points="1190.81,453.33 1190.48,365.19 1160.05,365.38 1160.05,378.34 1176.98,378.77 1176.98,453.3 			"/>
			<linearGradient id="SVGID_33_" gradientUnits="userSpaceOnUse" x1="1514.8997" y1="433.1307" x2="1454.4961" y2="377.1826">
				<stop  offset="0" style="stop-color:#94FEA2"/>
				<stop  offset="1" style="stop-color:#00FF41"/>
			</linearGradient>
			<polygon class="st32" points="1496.19,453.33 1495.86,365.19 1465.43,365.38 1465.43,378.34 1482.36,378.77 1482.36,453.3 			"/>
			<linearGradient id="SVGID_34_" gradientUnits="userSpaceOnUse" x1="1561.7719" y1="433.1308" x2="1501.3683" y2="377.1827">
				<stop  offset="0" style="stop-color:#94FEA2"/>
				<stop  offset="1" style="stop-color:#00FF41"/>
			</linearGradient>
			<polygon class="st33" points="1543.06,453.33 1542.73,365.19 1512.3,365.38 1512.3,378.34 1529.23,378.77 1529.23,453.3 			"/>
			<linearGradient id="SVGID_35_" gradientUnits="userSpaceOnUse" x1="1607.2239" y1="433.1307" x2="1546.8203" y2="377.1826">
				<stop  offset="0" style="stop-color:#94FEA2"/>
				<stop  offset="1" style="stop-color:#00FF41"/>
			</linearGradient>
			<polygon class="st34" points="1588.51,453.33 1588.18,365.19 1557.76,365.38 1557.76,378.34 1574.69,378.77 1574.69,453.3 			"/>
		</g>
	</g>
</g>
<g>
	<linearGradient id="SVGID_36_" gradientUnits="userSpaceOnUse" x1="1018.5922" y1="666.0383" x2="497.7952" y2="183.6563">
		<stop  offset="0" style="stop-color:#94FEA2"/>
		<stop  offset="1" style="stop-color:#00FF41"/>
	</linearGradient>
	<path class="st35" d="M948.87,77.83L856.5,235.94c0,0-23.56-0.58-30.6,0.09c-65.07,6.24-192.2-20.87-262.3,46.81
		c-59.15,57.1-64.58,126.06-58.45,168.93c20.05,140.04,175.62,153.08,175.62,153.08l161.41-1.97l-0.93-91.32l139.96-0.04
		l0.91,240.29c0,0-234.23,3.17-312.92,1c-414.8-25.45-446.66-625.21-28.96-673.15C716.85,70.88,948.87,77.83,948.87,77.83z"/>
	<g>
		<g>
			<linearGradient id="SVGID_37_" gradientUnits="userSpaceOnUse" x1="536.3381" y1="215.8308" x2="842.4307" y2="677.1874">
				<stop  offset="0" style="stop-color:#94FEA2"/>
				<stop  offset="1" style="stop-color:#00FF41"/>
			</linearGradient>
			<path class="st36" d="M807.27,631.45c-0.82,1.83-2.3,7.66-2.3,7.66l-199.95-2.19l-136.64-130.7l-1.18-58.36
				c0,0,3.99-0.8,5.69-1.42c18.69-7.26,21.81-38.41,5.95-50.1c-2.59-2.19-11.51-5.17-11.51-5.17l1.17-66.75l119.82-116.96
				l150.39-14.18c0,0,0.65,7.02,1.24,8.3c4.14,8.89,16.11,16.29,27.54,14.61c17.33-2.55,29.49-15.17,27.62-30.94
				c-1.76-26.14-32.67-34.34-49.55-21.02c-2.98,2.35-5.33,6.61-6.17,9.24c-0.39,1.22-0.22,1.55-0.22,1.55l-159.82,12.26
				L449.73,313.06l0.23,78.11c0,0-6.52,1.2-9.16,2.81c-16.49,8.83-17.85,36.77-4.4,48.83c2.37,2.13,11.12,4.95,11.12,4.95
				l1.25,63.88l148.87,143.4l206.73,3.03c0,0,0.34,4.47,2.35,7.21c18.4,25.11,48.74,11.88,54.77-10.53
				C869.99,623.09,820.73,601.64,807.27,631.45z M765.89,167.97c10.2,0,18.46,8.27,18.46,18.48s-8.27,18.48-18.46,18.48
				c-10.2,0-18.46-8.27-18.46-18.48S755.7,167.97,765.89,167.97z M437.79,420.08c0-10.79,8.9-19.53,19.89-19.53
				c10.98,0,19.89,8.74,19.89,19.53c0,10.79-8.9,19.53-19.89,19.53C446.69,439.61,437.79,430.87,437.79,420.08z M832.93,665.27
				c-9.81,0-17.75-7.81-17.75-17.44s7.95-17.44,17.75-17.44s17.75,7.81,17.75,17.44S842.74,665.27,832.93,665.27z"/>
		</g>
	</g>
	<g>
		<g>
			<linearGradient id="SVGID_38_" gradientUnits="userSpaceOnUse" x1="508.0554" y1="166.9268" x2="889.175" y2="741.3676">
				<stop  offset="0" style="stop-color:#94FEA2"/>
				<stop  offset="1" style="stop-color:#00FF41"/>
			</linearGradient>
			<path class="st37" d="M867.12,683.3l-5.51,10.29l-276.6-5.04L415.03,527.49l-1.71-217.82l155.29-155.52l209.28-11.7l1.13,3.62
				c13.82,31.68,62.76,19.5,57.71-16.29c-0.96-26.07-44.52-38.79-56.25-13.43l-2.14,4.78l-214.67,8.91L392.17,303.63l2.86,231.72
				l180.27,175.1l287.41,2.79c0,0,0.75,3.81,1.34,4.96c11.07,21.39,55.65,19.47,58.83-11.22
				C925.91,672.13,884.43,661.96,867.12,683.3z M806.08,115.69c9.81,0,17.75,7.81,17.75,17.44c0,9.63-7.95,17.44-17.75,17.44
				c-9.81,0-17.75-7.81-17.75-17.44C788.33,123.49,796.28,115.69,806.08,115.69z M892.59,721.09c-9.81,0-17.75-7.81-17.75-17.44
				c0-9.63,7.95-17.44,17.75-17.44c9.81,0,17.75,7.81,17.75,17.44C910.34,713.28,902.39,721.09,892.59,721.09z"/>
		</g>
	</g>
</g>
<path class="st38" d="M1263.68,908.14c-0.05-0.07-0.27-0.04-0.54-0.06c-0.78,0.85-0.33,1.94-0.39,2.92
	c-0.16,2.55-0.67,157.2-0.67,157.2h-53.62c0,0-0.08-256.68,0.03-257.56c0.86-0.18,50.4,0,50.4,0s91.48,142.77,101.82,158.84
	c0.32,0.5,0.75,0.93,1.09,1.34c1.29-0.18,1.04-1.07,1.05-1.75c0.07-13.03,0.7-158.44,0.7-158.44s50.16,0.05,53.38,0.05
	c0,3.31,0.39,128.21,0.39,257.39c-2.5,0-49.81,0-49.81,0S1265.75,911.16,1263.68,908.14z"/>
<path class="st39" d="M2159.77,861.03c5.4,12.9,7.17,25.93,5.53,39.41c-1.37,11.23-5.86,21.25-12.59,30.35
	c-5.04,6.81-11.17,12.63-18.37,17.3c-5.44,3.52-10.84,7.13-16.84,9.76c-0.69,0.3-1.32,0.73-2.19,1.21c0.54,1.06,0.96,2.01,1.49,2.9
	c8.58,14.39,17.17,28.78,25.77,43.16c10.26,17.14,38.9,62.81,38.9,62.81s-39.1-0.1-57.99-0.1c-0.45,0-39.4-65.68-58.27-98.05
	c-5.36,0-45.26,0.05-45.26,0.05l-0.16,98.24c0,0-51,0.12-52,0c0-6.34,0.06-252.62,0.06-257.58c3.79,0,85.68-0.15,94.57,0
	c15.84,0.27,29.46,3.58,44.59,8.3c8.79,2.74,17.2,6.38,24.96,11.28C2144.15,837.75,2153.42,847.94,2159.77,861.03z M2099.99,917.77
	c9.62-7.17,14.09-16.67,13.53-28.36c-0.67-13.99-7.34-24.38-20.3-30.75c-3.04-1.49-6.3-2.63-9.57-3.59
	c-6.9-2.03-14.01-2.99-21.22-3.04c-15.45-0.11-41.87,0.23-43.08,0.47c0,1.94,0.48,76.5,0.48,76.5s25.43,0.67,44.58,0.2
	C2077.12,928.88,2088.98,925.43,2099.99,917.77z"/>
<path class="st39" d="M845.07,860.44c5.4,12.94,7.16,26,5.53,39.52c-1.37,11.26-5.86,21.31-12.59,30.44
	c-5.04,6.83-11.17,12.67-18.37,17.35c-5.44,3.53-10.84,7.15-16.84,9.78c-0.69,0.3-1.32,0.73-2.19,1.21
	c0.54,1.06,0.96,2.02,1.49,2.91c8.58,14.43,17.17,28.86,25.77,43.28c10.26,17.19,38.65,63.13,38.65,63.13s-58.39,0.16-59.23,0
	c-18.91-32.49-37.91-66.1-56.78-98.57c-5-0.6-41.64-0.53-45.26,0.05c-0.97,1.17-0.57,2.58-0.58,3.9
	c-0.04,10.76-0.02,21.51-0.02,32.27c0,20.21,0.19,62.35,0.19,62.35h-52l0.31-257.57c0,0,83.73,0,92.57,0
	c15.84,0,31.46,2.86,46.59,7.59c8.79,2.75,17.2,6.4,24.96,11.31C829.45,837.09,838.72,847.32,845.07,860.44z M785.29,917.35
	c9.62-7.19,14.09-16.72,13.53-28.44c-0.67-14.03-7.34-24.45-20.3-30.84c-3.04-1.5-6.3-2.64-9.57-3.6
	c-6.9-2.04-14.01-2.99-21.22-3.05c-15.45-0.11-43.08,0.47-43.08,0.47l0.48,76.71c0,0,25.43,0.67,44.58,0.2
	C762.42,928.49,774.29,925.03,785.29,917.35z"/>
<path class="st38" d="M1532.09,1060.36c-91.69-29.81-107.72-171.34-36.52-226.95c60.88-44.39,184.91-24.4,188.41,62.48l-53.62,0.19
	c-4.87-24.9-19.94-42.87-49.01-44.87c-121.75-8.85-107.71,220.18,48.3,156.65c-0.11-0.7,0.36-37.32,0.04-37.98
	c-3.9,0-62.18-0.3-62.18-0.3l-0.37-39.49c0,0,115.19,0.13,117,0.2c0.17,1.43-0.24,95.98-0.24,95.98
	C1664.66,1057.7,1594.72,1080.73,1532.09,1060.36z"/>
<path class="st38" d="M119.46,1060.49c-91.69-29.85-107.72-171.57-36.52-227.25c60.88-44.44,184.91-24.43,188.41,62.56l-53.62,0.19
	c-4.87-24.93-19.94-42.93-49.01-44.93c-121.75-8.86-107.71,220.47,48.3,156.86c-0.11-0.71,0.36-37.37,0.04-38.03
	c-3.9,0-62.18-0.3-62.18-0.3l-0.37-39.54c0,0,115.19,0.13,117,0.2c0.17,1.44-0.24,96.11-0.24,96.11
	C252.03,1057.82,182.09,1080.88,119.46,1060.49z"/>
<path class="st39" d="M1916.59,810.49c0,2.39,0.09,36.98,0.09,41.8c-53.12,0-89.56,0.89-140.96,0.89c-0.16,0.86-0.36,2.01-0.36,2.01
	s-0.01,39.65-0.01,59.77c10.59,0,113.78,0.94,121.25,0.94c0,4.83,0,32.39,0.2,40.06c-34.71,0-119.26,0.61-120.5,0.65
	c-2.42,0.38-0.16,66.4-0.97,67.53c0,0,0.2,1.81,0.2,1.81s0.19,0.23,0.57,0.67c30.96,0.65,107.17,0.26,140.66,0.26
	c0,4.19-0.1,31.82-0.1,41.17c-2.72,0-192.79-0.24-192.79-0.24l-0.79-257.33C1723.07,810.49,1913.16,810.48,1916.59,810.49z"/>
<polygon class="st38" points="479.14,1026.58 607.42,1027.31 607.41,1068.05 413.71,1068.06 413.58,810.49 605.71,810.49 
	605.75,852.55 466.59,852.8 465.96,914.75 586.79,915.17 586.85,955.97 466.1,956.54 465.74,957.93 465.73,1024.75 466.07,1025.97 
	466.97,1026.44 "/>
<path class="st39" d="M947.33,963.59c0,21.37,0,42.27,0,63.36c1.18,0.21,2.06,0.45,2.94,0.5c1.4,0.08,2.81,0.02,4.22,0.02
	c52.7,0,118.25,0.15,118.25,0.15l0.43,40.44l-172.84-0.14c0,0-0.49-256.54-0.39-257.43c0.86-0.17,46.11-0.18,47.18,0
	C947.26,811.33,947.33,915.04,947.33,963.59z"/>
<path class="st39" d="M310.7,810.49h57.61l0.17,257.57c0,0-56.5,0-57.89,0C310.59,1066.71,310.7,810.49,310.7,810.49z"/>
<path class="st38" d="M1156.22,810.49c0,0,1.21,254.58,1.21,257.57c-1.29,0-58.02,0-58.02,0l-0.11-257.57H1156.22z"/>
</svg>
