<?xml version="1.0" encoding="utf-8"?>
<!-- Generator: Adobe Adobe Illustrator 24.2.0, SVG Export Plug-In . SVG Version: 6.00 Build 0)  -->
<svg version="1.1" id="Ebene_1" xmlns="http://www.w3.org/2000/svg" xmlns:xlink="http://www.w3.org/1999/xlink" x="0px" y="0px"
	 viewBox="0 0 287.63 284.55" style="enable-background:new 0 0 287.63 284.55;" xml:space="preserve">
<style type="text/css">
	.st0{fill:url(#SVGID_1_);}
	.st1{fill:url(#SVGID_2_);}
	.st2{fill:url(#SVGID_3_);}
	.st3{fill:url(#SVGID_4_);}
	.st4{fill:url(#SVGID_5_);}
	.st5{fill:url(#SVGID_6_);}
	.st6{fill:url(#SVGID_7_);}
	.st7{fill:url(#SVGID_8_);}
	.st8{fill:url(#SVGID_9_);}
	.st9{fill:url(#SVGID_10_);}
	.st10{fill:url(#SVGID_11_);}
	.st11{fill:url(#SVGID_12_);}
	.st12{fill:url(#SVGID_13_);}
	.st13{fill:url(#SVGID_14_);}
	.st14{fill:url(#SVGID_15_);}
	.st15{fill:url(#SVGID_16_);}
	.st16{fill:url(#SVGID_17_);}
	.st17{fill:url(#SVGID_18_);}
	.st18{fill:url(#SVGID_19_);}
	.st19{fill:url(#SVGID_20_);}
	.st20{fill:url(#SVGID_21_);}
	.st21{fill:url(#SVGID_22_);}
	.st22{fill:url(#SVGID_23_);}
	.st23{fill:url(#SVGID_24_);}
	.st24{fill:url(#SVGID_25_);}
	.st25{fill:url(#SVGID_26_);}
	.st26{fill:url(#SVGID_27_);}
	.st27{fill:url(#SVGID_28_);}
	.st28{fill:url(#SVGID_29_);}
	.st29{fill:url(#SVGID_30_);}
	.st30{fill:url(#SVGID_31_);}
	.st31{fill:url(#SVGID_32_);}
	.st32{fill:url(#SVGID_33_);}
	.st33{fill:url(#SVGID_34_);}
	.st34{fill:url(#SVGID_35_);}
	.st35{fill:url(#SVGID_36_);}
	.st36{fill:url(#SVGID_37_);}
	.st37{fill:url(#SVGID_38_);}
	.st38{fill:url(#SVGID_39_);}
	.st39{fill:url(#SVGID_40_);}
	.st40{fill:#02FE41;}
	.st41{fill:#03FE42;}
</style>
<g>
	<linearGradient id="SVGID_1_" gradientUnits="userSpaceOnUse" x1="266.5583" y1="273.2086" x2="147.6638" y2="163.084">
		<stop  offset="0" style="stop-color:#94FEA2"/>
		<stop  offset="1" style="stop-color:#00FF41"/>
	</linearGradient>
	<polygon class="st0" points="156.56,153.48 188.34,264.15 213.76,240.86 251.9,284.55 268.28,271.35 233.57,224.3 261.53,205.16 	
		"/>
	<g>
		<g>
			<linearGradient id="SVGID_2_" gradientUnits="userSpaceOnUse" x1="232.6273" y1="224.8697" x2="23.5054" y2="31.1731">
				<stop  offset="0" style="stop-color:#94FEA2"/>
				<stop  offset="1" style="stop-color:#00FF41"/>
			</linearGradient>
			<path class="st1" d="M287.63,198.62l-0.71-138.49C286.92,26.92,259.5,0,225.69,0H61.23C27.41,0,0,26.92,0,60.13v164.3
				c0,33.21,27.41,60.13,61.23,60.13h110.49l-38.8-164.9L287.63,198.62z M223.98,103.58c7.9-2.27,16.19,2.17,18.51,9.94
				s-2.21,15.9-10.12,18.17s-16.19-2.17-18.51-9.94C211.55,113.99,216.08,105.85,223.98,103.58z M188.24,54.2
				c7.9-2.27,16.19,2.17,18.51,9.94s-2.21,15.9-10.12,18.17s-16.19-2.17-18.51-9.94C175.81,64.61,180.34,56.47,188.24,54.2z
				 M66.55,182.18c-7.9,2.27-16.19-2.17-18.51-9.94c-2.32-7.76,2.21-15.9,10.12-18.17c7.9-2.27,16.19,2.17,18.51,9.94
				C78.98,171.77,74.45,179.91,66.55,182.18z M72.68,113.99c-7.9,2.27-16.19-2.17-18.51-9.94c-2.32-7.76,2.21-15.9,10.12-18.17
				s16.19,2.17,18.51,9.94C85.12,103.57,80.59,111.71,72.68,113.99z M113.81,229.49c-7.9,2.27-16.19-2.17-18.51-9.94
				c-2.32-7.76,2.21-15.9,10.12-18.17s16.19,2.17,18.51,9.94C126.25,219.07,121.72,227.21,113.81,229.49z M108.52,62.97
				c-2.32-7.76,2.21-15.9,10.12-18.17c7.9-2.27,16.19,2.17,18.51,9.94c2.32,7.76-2.21,15.9-10.12,18.17S110.84,70.73,108.52,62.97z"
				/>
		</g>
	</g>
</g>
</svg>
