<?xml version="1.0" encoding="utf-8"?>
<!-- Generator: Adobe Adobe Illustrator 24.2.0, SVG Export Plug-In . SVG Version: 6.00 Build 0)  -->
<svg version="1.1" id="Ebene_1" xmlns="http://www.w3.org/2000/svg" xmlns:xlink="http://www.w3.org/1999/xlink" x="0px" y="0px"
	 width="818.35px" height="818.35px" viewBox="0 0 818.35 818.35" style="enable-background:new 0 0 818.35 818.35;"
	 xml:space="preserve">
<style type="text/css">
	.st0{fill:url(#SVGID_1_);}
	.st1{fill:url(#SVGID_2_);}
	.st2{fill:url(#SVGID_3_);}
	.st3{fill:url(#SVGID_4_);}
	.st4{fill:url(#SVGID_5_);}
	.st5{fill:url(#SVGID_6_);}
	.st6{fill:url(#SVGID_7_);}
	.st7{fill:url(#SVGID_8_);}
	.st8{fill:url(#SVGID_9_);}
	.st9{fill:url(#SVGID_10_);}
	.st10{fill:url(#SVGID_11_);}
	.st11{fill:url(#SVGID_12_);}
	.st12{fill:url(#SVGID_13_);}
	.st13{fill:url(#SVGID_14_);}
	.st14{fill:url(#SVGID_15_);}
	.st15{fill:url(#SVGID_16_);}
	.st16{fill:url(#SVGID_17_);}
	.st17{fill:url(#SVGID_18_);}
	.st18{fill:url(#SVGID_19_);}
	.st19{fill:url(#SVGID_20_);}
	.st20{fill:url(#SVGID_21_);}
	.st21{fill:url(#SVGID_22_);}
	.st22{fill:url(#SVGID_23_);}
	.st23{fill:url(#SVGID_24_);}
	.st24{fill:url(#SVGID_25_);}
	.st25{fill:url(#SVGID_26_);}
	.st26{fill:url(#SVGID_27_);}
	.st27{fill:url(#SVGID_28_);}
	.st28{fill:url(#SVGID_29_);}
	.st29{fill:url(#SVGID_30_);}
	.st30{fill:url(#SVGID_31_);}
	.st31{fill:url(#SVGID_32_);}
	.st32{fill:url(#SVGID_33_);}
	.st33{fill:url(#SVGID_34_);}
	.st34{fill:url(#SVGID_35_);}
	.st35{fill:url(#SVGID_36_);}
	.st36{fill:url(#SVGID_37_);}
	.st37{fill:url(#SVGID_38_);}
	.st38{fill:url(#SVGID_39_);}
	.st39{fill:url(#SVGID_40_);}
	.st40{fill:#02FE41;}
	.st41{fill:#03FE42;}
	.st42{fill:#18241B;}
	.st43{fill:none;}
	.st44{fill:url(#SVGID_41_);}
	.st45{fill:#00FF41;}
	.st46{fill:#94FEA2;}
	.st47{fill:url(#SVGID_42_);}
	.st48{fill:url(#SVGID_43_);}
	.st49{fill:url(#SVGID_44_);}
	.st50{fill:url(#SVGID_45_);}
	.st51{fill:url(#SVGID_46_);}
	.st52{fill:url(#SVGID_47_);}
	.st53{fill:url(#SVGID_48_);}
	.st54{fill:url(#SVGID_49_);}
	.st55{fill:url(#SVGID_50_);}
	.st56{fill:url(#SVGID_51_);}
	.st57{fill:url(#SVGID_52_);}
	.st58{fill:url(#SVGID_53_);}
	.st59{fill:url(#SVGID_54_);}
	.st60{fill:url(#SVGID_55_);}
	.st61{fill:url(#SVGID_56_);}
	.st62{fill:url(#SVGID_57_);}
	.st63{fill:url(#SVGID_58_);}
	.st64{fill:url(#SVGID_59_);}
	.st65{fill:url(#SVGID_60_);}
	.st66{fill:url(#SVGID_61_);}
	.st67{fill:url(#SVGID_62_);}
	.st68{fill:url(#SVGID_63_);}
	.st69{fill:url(#SVGID_64_);}
	.st70{fill:url(#SVGID_65_);}
	.st71{fill:url(#SVGID_66_);}
	.st72{fill:url(#SVGID_67_);}
	.st73{fill:url(#SVGID_68_);}
	.st74{fill:url(#SVGID_69_);}
	.st75{fill:url(#SVGID_70_);}
	.st76{fill:url(#SVGID_71_);}
	.st77{fill:url(#SVGID_72_);}
	.st78{fill:url(#SVGID_73_);}
	.st79{fill:url(#SVGID_74_);}
	.st80{fill:url(#SVGID_75_);}
	.st81{fill:url(#SVGID_76_);}
	.st82{fill:url(#SVGID_77_);}
	.st83{fill:url(#SVGID_78_);}
	.st84{fill:url(#SVGID_79_);}
	.st85{fill:url(#SVGID_80_);}
	.st86{fill:url(#SVGID_81_);}
	.st87{fill:url(#SVGID_82_);}
	.st88{fill:url(#SVGID_83_);}
	.st89{fill:url(#SVGID_84_);}
	.st90{fill:url(#SVGID_85_);}
	.st91{fill:url(#SVGID_86_);}
	.st92{fill:url(#SVGID_87_);}
	.st93{fill:url(#SVGID_88_);}
	.st94{fill:url(#SVGID_89_);}
	.st95{fill:url(#SVGID_90_);}
	.st96{fill:url(#SVGID_91_);}
	.st97{fill:url(#SVGID_92_);}
	.st98{fill:url(#SVGID_93_);}
	.st99{fill:url(#SVGID_94_);}
	.st100{fill:url(#SVGID_95_);}
	.st101{fill:url(#SVGID_96_);}
	.st102{fill:url(#SVGID_97_);}
	.st103{fill:url(#SVGID_98_);}
	.st104{fill:url(#SVGID_99_);}
	.st105{fill:url(#SVGID_100_);}
	.st106{fill:url(#SVGID_101_);}
	.st107{fill:url(#SVGID_102_);}
	.st108{fill:url(#SVGID_103_);}
	.st109{fill:url(#SVGID_104_);}
	.st110{fill:url(#SVGID_105_);}
	.st111{fill:url(#SVGID_106_);}
	.st112{fill:url(#SVGID_107_);}
	.st113{fill:url(#SVGID_108_);}
	.st114{fill:url(#SVGID_109_);}
	.st115{fill:url(#SVGID_110_);}
	.st116{fill:url(#SVGID_111_);}
	.st117{fill:url(#SVGID_112_);}
	.st118{fill:url(#SVGID_113_);}
	.st119{fill:url(#SVGID_114_);}
	.st120{fill:url(#SVGID_115_);}
	.st121{fill:url(#SVGID_116_);}
	.st122{fill:url(#SVGID_117_);}
	.st123{fill:url(#SVGID_118_);}
	.st124{fill:url(#SVGID_119_);}
	.st125{fill:url(#SVGID_120_);}
	.st126{fill:url(#SVGID_121_);}
	.st127{fill:url(#SVGID_122_);}
	.st128{fill:url(#SVGID_123_);}
	.st129{fill:url(#SVGID_124_);}
	.st130{fill:url(#SVGID_125_);}
	.st131{fill:url(#SVGID_126_);}
	.st132{fill:url(#SVGID_127_);}
	.st133{fill:url(#SVGID_128_);}
	.st134{fill:url(#SVGID_129_);}
	.st135{fill:url(#SVGID_130_);}
	.st136{fill:url(#SVGID_131_);}
	.st137{fill:url(#SVGID_132_);}
	.st138{fill:url(#SVGID_133_);}
</style>
<rect x="0" y="0" class="st43" width="818.35" height="818.35"/>
<g>
	<g>
		<g>
			<linearGradient id="SVGID_1_" gradientUnits="userSpaceOnUse" x1="393.4837" y1="252.1634" x2="423.6156" y2="551.5385">
				<stop  offset="0" style="stop-color:#94FEA2"/>
				<stop  offset="1" style="stop-color:#00FF41"/>
			</linearGradient>
			<path class="st0" d="M409.18,9.23C190.02,9.23,12.36,187.8,12.36,408.07s177.66,398.84,396.81,398.84
				c219.15,0,396.81-178.57,396.81-398.84S628.33,9.23,409.18,9.23z M408.84,796.51c-213.83,0-387.16-174.43-387.16-389.61
				S195.02,17.3,408.84,17.3c213.83,0,387.17,174.43,387.17,389.61S622.67,796.51,408.84,796.51z"/>
		</g>
	</g>
	<g>
		<g>
			<linearGradient id="SVGID_2_" gradientUnits="userSpaceOnUse" x1="676.9206" y1="455.6291" x2="634.5432" y2="416.3776">
				<stop  offset="0" style="stop-color:#94FEA2"/>
				<stop  offset="1" style="stop-color:#00FF41"/>
			</linearGradient>
			<polygon class="st1" points="638.4,412.21 649.43,452.72 658.25,444.2 671.49,460.2 677.17,455.36 665.12,438.14 674.83,431.13 
							"/>
			<g>
				<g>
					<linearGradient id="SVGID_3_" gradientUnits="userSpaceOnUse" x1="665.2138" y1="437.1549" x2="591.1323" y2="368.5378">
						<stop  offset="0" style="stop-color:#94FEA2"/>
						<stop  offset="1" style="stop-color:#00FF41"/>
					</linearGradient>
					<path class="st2" d="M683.88,428.74l-0.25-50.7c0-12.16-9.51-22.01-21.25-22.01h-57.07c-11.73,0-21.25,9.85-21.25,22.01v60.15
						c0,12.16,9.51,22.01,21.25,22.01h38.34l-13.46-60.37L683.88,428.74z M661.8,393.94c2.74-0.83,5.62,0.8,6.42,3.64
						c0.8,2.84-0.77,5.82-3.51,6.65c-2.74,0.83-5.62-0.8-6.42-3.64C657.48,397.75,659.06,394.78,661.8,393.94z M649.4,375.87
						c2.74-0.83,5.62,0.8,6.42,3.64c0.8,2.84-0.77,5.82-3.51,6.65c-2.74,0.83-5.62-0.8-6.42-3.64
						C645.08,379.68,646.65,376.7,649.4,375.87z M607.17,422.72c-2.74,0.83-5.62-0.8-6.42-3.64c-0.8-2.84,0.77-5.82,3.51-6.65
						s5.62,0.8,6.42,3.64C611.48,418.91,609.91,421.89,607.17,422.72z M609.3,397.75c-2.74,0.83-5.62-0.8-6.42-3.64
						c-0.8-2.84,0.77-5.82,3.51-6.65c2.74-0.83,5.62,0.8,6.42,3.64C613.61,393.94,612.04,396.92,609.3,397.75z M623.57,440.04
						c-2.74,0.83-5.62-0.8-6.42-3.64c-0.8-2.84,0.77-5.82,3.51-6.65s5.62,0.8,6.42,3.64C627.88,436.22,626.31,439.2,623.57,440.04z
						 M628.16,382.72c-2.74,0.83-5.62-0.8-6.42-3.64c-0.8-2.84,0.77-5.82,3.51-6.65s5.62,0.8,6.42,3.64
						C632.47,378.9,630.9,381.88,628.16,382.72z"/>
				</g>
			</g>
		</g>
		<g>
			<g>
				<g>
					<g>
						<linearGradient id="SVGID_4_" gradientUnits="userSpaceOnUse" x1="405.8929" y1="417.8677" x2="309.2513" y2="328.3545">
							<stop  offset="0" style="stop-color:#94FEA2"/>
							<stop  offset="1" style="stop-color:#00FF41"/>
						</linearGradient>
						<path class="st3" d="M270.41,380.49l91.01,0.35l28.22-29.41l54.84-0.7l1.48,3.2c6.85,9.55,22.78,4.78,20.61-9.27
							c-2.06-11.6-19.51-12.74-21.6-0.39l-0.01,0.08l-57.31,0.07l-28.41,29.75l-91.25-0.45l-24.81,25.95l9.16-0.11L270.41,380.49z
							 M455.7,340.47c3.74,0,6.78,3.14,6.78,7.02c0,3.88-3.03,7.02-6.78,7.02c-3.74,0-6.78-3.14-6.78-7.02
							C448.92,343.61,451.96,340.47,455.7,340.47z"/>
						<linearGradient id="SVGID_5_" gradientUnits="userSpaceOnUse" x1="427.9171" y1="510.4377" x2="291.9937" y2="384.5403">
							<stop  offset="0" style="stop-color:#94FEA2"/>
							<stop  offset="1" style="stop-color:#00FF41"/>
						</linearGradient>
						<path class="st4" d="M446.17,456.58l-1.48,3.2l-56.04-0.27l-29.76-30.94l-107.3-0.42l-0.02,7.69l105.67-0.23l28.63,30.11
							l59.31,0.44l0.01,0.08c2.09,12.34,19.54,11.21,21.6-0.39C468.95,451.81,453.02,447.03,446.17,456.58z M455.9,470.05
							c-3.74,0-6.78-3.14-6.78-7.02s3.03-7.02,6.78-7.02c3.74,0,6.78,3.14,6.78,7.02S459.64,470.05,455.9,470.05z"/>
						<linearGradient id="SVGID_6_" gradientUnits="userSpaceOnUse" x1="513.2996" y1="509.7367" x2="339.5828" y2="348.8336">
							<stop  offset="0" style="stop-color:#94FEA2"/>
							<stop  offset="1" style="stop-color:#00FF41"/>
						</linearGradient>
						<path class="st5" d="M550.02,435.95l-1.48,3.2l-56.58-1.07l-95.02-0.75l-26.35-27.18l-88.14,0.37l-4.94,6.58l90.11,0.07
							l27.67,28.66l96.6-1.29l57.13,0.99l0.01,0.08c2.09,12.34,19.54,11.21,21.6-0.39C572.79,431.17,556.86,426.39,550.02,435.95z
							 M559.75,449.41c-3.74,0-6.78-3.14-6.78-7.02c0-3.88,3.03-7.02,6.78-7.02s6.78,3.14,6.78,7.02
							C566.52,446.27,563.49,449.41,559.75,449.41z"/>
						<linearGradient id="SVGID_7_" gradientUnits="userSpaceOnUse" x1="478.103" y1="471.137" x2="304.015" y2="309.8901">
							<stop  offset="0" style="stop-color:#94FEA2"/>
							<stop  offset="1" style="stop-color:#00FF41"/>
						</linearGradient>
						<path class="st6" d="M279.75,398.5l93.15,0.3l24.62-26.45L547,371.28l1.48,3.2c6.85,9.55,22.78,4.78,20.61-9.27
							c-2.06-11.6-19.51-12.74-21.6-0.39l-0.01,0.08l-153.73,0.99l-23.62,26.15l-93.65,0.22l-15.25,17.72l-24.14,0.01
							c-5.89-18.62-31.06-7.03-22.14,9.83c5.7,9.99,18.9,6.82,22.47-3.03l26.62,0.34L279.75,398.5z M558.21,361.02
							c3.74,0,6.78,3.14,6.78,7.02s-3.03,7.02-6.78,7.02s-6.78-3.14-6.78-7.02S554.47,361.02,558.21,361.02z M225.03,419.98
							c-3.81,0-6.9-3.23-6.9-7.21c0-3.98,3.09-7.21,6.9-7.21s6.9,3.23,6.9,7.21C231.93,416.75,228.84,419.98,225.03,419.98z"/>
						<linearGradient id="SVGID_8_" gradientUnits="userSpaceOnUse" x1="414.6479" y1="415.8514" x2="393.6036" y2="396.3594">
							<stop  offset="0" style="stop-color:#94FEA2"/>
							<stop  offset="1" style="stop-color:#00FF41"/>
						</linearGradient>
						<path class="st7" d="M393.48,408.11c0.44,10.02,4.21,14.19,11.6,14.67c13.2-0.53,13.99-32.59-0.31-33.17
							C394.58,389.19,393.13,400.09,393.48,408.11z M403.66,417.26c-8.6-1.11-6.26-21.91,0.22-22.14
							C411.55,394.85,413.27,418.49,403.66,417.26z"/>
						<linearGradient id="SVGID_9_" gradientUnits="userSpaceOnUse" x1="456.5412" y1="415.8498" x2="435.497" y2="396.3578">
							<stop  offset="0" style="stop-color:#94FEA2"/>
							<stop  offset="1" style="stop-color:#00FF41"/>
						</linearGradient>
						<path class="st8" d="M435.37,408.11c0.44,10.02,4.21,14.19,11.6,14.67c13.2-0.53,13.99-32.59-0.31-33.17
							C436.47,389.19,435.02,400.08,435.37,408.11z M445.55,417.26c-8.6-1.11-6.26-21.91,0.22-22.14
							C453.44,394.85,455.16,418.49,445.55,417.26z"/>
						<linearGradient id="SVGID_10_" gradientUnits="userSpaceOnUse" x1="483.6487" y1="415.8514" x2="462.6044" y2="396.3594">
							<stop  offset="0" style="stop-color:#94FEA2"/>
							<stop  offset="1" style="stop-color:#00FF41"/>
						</linearGradient>
						<path class="st9" d="M462.48,408.11c0.44,10.02,4.21,14.19,11.6,14.67c13.2-0.53,13.99-32.59-0.31-33.17
							C463.58,389.19,462.13,400.09,462.48,408.11z M472.66,417.26c-8.6-1.11-6.26-21.91,0.22-22.14
							C480.55,394.85,482.27,418.49,472.66,417.26z"/>
						<linearGradient id="SVGID_11_" gradientUnits="userSpaceOnUse" x1="520.6135" y1="415.8514" x2="499.5692" y2="396.3593">
							<stop  offset="0" style="stop-color:#94FEA2"/>
							<stop  offset="1" style="stop-color:#00FF41"/>
						</linearGradient>
						<path class="st10" d="M499.45,408.11c0.44,10.02,4.21,14.19,11.6,14.67c13.2-0.53,13.99-32.59-0.31-33.17
							C500.54,389.19,499.1,400.09,499.45,408.11z M509.63,417.26c-8.6-1.11-6.26-21.91,0.22-22.14
							C517.51,394.85,519.23,418.49,509.63,417.26z"/>
						<linearGradient id="SVGID_12_" gradientUnits="userSpaceOnUse" x1="435.8766" y1="414.8614" x2="414.08" y2="394.6725">
							<stop  offset="0" style="stop-color:#94FEA2"/>
							<stop  offset="1" style="stop-color:#00FF41"/>
						</linearGradient>
						<polygon class="st11" points="428.96,422.32 428.85,390.06 418.29,390.12 418.29,394.87 424.17,395.03 424.17,422.31 						
							"/>
						<linearGradient id="SVGID_13_" gradientUnits="userSpaceOnUse" x1="541.8422" y1="414.8613" x2="520.0456" y2="394.6725">
							<stop  offset="0" style="stop-color:#94FEA2"/>
							<stop  offset="1" style="stop-color:#00FF41"/>
						</linearGradient>
						<polygon class="st12" points="534.93,422.32 534.82,390.06 524.26,390.12 524.26,394.87 530.13,395.03 530.13,422.31 						
							"/>
						<linearGradient id="SVGID_14_" gradientUnits="userSpaceOnUse" x1="558.1066" y1="414.8613" x2="536.31" y2="394.6724">
							<stop  offset="0" style="stop-color:#94FEA2"/>
							<stop  offset="1" style="stop-color:#00FF41"/>
						</linearGradient>
						<polygon class="st13" points="551.19,422.32 551.08,390.06 540.52,390.12 540.52,394.87 546.4,395.03 546.4,422.31 						"/>
						<linearGradient id="SVGID_15_" gradientUnits="userSpaceOnUse" x1="573.8782" y1="414.8614" x2="552.0817" y2="394.6725">
							<stop  offset="0" style="stop-color:#94FEA2"/>
							<stop  offset="1" style="stop-color:#00FF41"/>
						</linearGradient>
						<polygon class="st14" points="566.97,422.32 566.85,390.06 556.29,390.12 556.29,394.87 562.17,395.03 562.17,422.31 						
							"/>
					</g>
				</g>
			</g>
			<g>
				<linearGradient id="SVGID_16_" gradientUnits="userSpaceOnUse" x1="372.6006" y1="497.7299" x2="187.0147" y2="325.8332">
					<stop  offset="0" style="stop-color:#94FEA2"/>
					<stop  offset="1" style="stop-color:#00FF41"/>
				</linearGradient>
				<path class="st15" d="M345.01,284.86l-32.05,57.88c0,0-8.18-0.21-10.62,0.03c-22.58,2.28-66.69-7.64-91.02,17.14
					c-20.52,20.9-22.41,46.15-20.28,61.84c6.96,51.27,60.94,56.04,60.94,56.04l56.01-0.72l-0.32-33.43l48.57-0.02l0.31,87.96
					c0,0-81.28,1.16-108.58,0.37c-143.93-9.32-154.99-228.88-10.05-246.43C264.5,282.32,345.01,284.86,345.01,284.86z"/>
				<g>
					<g>
						<linearGradient id="SVGID_17_" gradientUnits="userSpaceOnUse" x1="200.5129" y1="335.7326" x2="311.004" y2="502.2699">
							<stop  offset="0" style="stop-color:#94FEA2"/>
							<stop  offset="1" style="stop-color:#00FF41"/>
						</linearGradient>
						<path class="st16" d="M295.88,487.53c-0.29,0.67-0.8,2.8-0.8,2.8l-69.38-0.8l-47.41-47.85l-0.41-21.36
							c0,0,1.38-0.29,1.97-0.52c6.49-2.66,7.57-14.06,2.06-18.34c-0.9-0.8-3.99-1.89-3.99-1.89l0.41-24.44l41.58-42.82l52.18-5.19
							c0,0,0.22,2.57,0.43,3.04c1.44,3.25,5.59,5.96,9.55,5.35c6.01-0.93,10.23-5.55,9.58-11.33c-0.61-9.57-11.34-12.57-17.19-7.69
							c-1.03,0.86-1.85,2.42-2.14,3.38c-0.13,0.45-0.08,0.57-0.08,0.57l-55.46,4.49l-44.98,46.04l0.08,28.59
							c0,0-2.26,0.44-3.18,1.03c-5.72,3.23-6.2,13.46-1.53,17.88c0.82,0.78,3.86,1.81,3.86,1.81l0.43,23.39l51.66,52.49l71.73,1.11
							c0,0,0.12,1.64,0.81,2.64c6.38,9.19,16.91,4.35,19.01-3.85C317.64,484.47,300.55,476.62,295.88,487.53z M281.52,317.86
							c3.54,0,6.41,3.03,6.41,6.77c0,3.74-2.87,6.77-6.41,6.77c-3.54,0-6.41-3.03-6.41-6.77
							C275.11,320.89,277.98,317.86,281.52,317.86z M167.67,410.15c0-3.95,3.09-7.15,6.9-7.15s6.9,3.2,6.9,7.15s-3.09,7.15-6.9,7.15
							S167.67,414.1,167.67,410.15z M304.78,499.91c-3.4,0-6.16-2.86-6.16-6.38s2.76-6.38,6.16-6.38c3.4,0,6.16,2.86,6.16,6.38
							S308.19,499.91,304.78,499.91z"/>
					</g>
				</g>
				<g>
					<g>
						<linearGradient id="SVGID_18_" gradientUnits="userSpaceOnUse" x1="190.3273" y1="317.9171" x2="327.8232" y2="525.1572">
							<stop  offset="0" style="stop-color:#94FEA2"/>
							<stop  offset="1" style="stop-color:#00FF41"/>
						</linearGradient>
						<path class="st17" d="M316.65,506.51l-1.91,3.77l-95.98-1.84l-58.98-58.96l-0.59-79.74l53.88-56.93l72.62-4.28l0.39,1.32
							c4.79,11.6,21.78,7.14,20.02-5.96c-0.33-9.54-15.45-14.2-19.52-4.92l-0.74,1.75l-74.49,3.26l-59.51,63.55l0.99,84.83
							l62.55,64.1l99.73,1.02c0,0,0.26,1.4,0.47,1.82c3.84,7.83,19.31,7.13,20.41-4.11C337.05,502.42,322.65,498.7,316.65,506.51z
							 M295.47,298.72c3.4,0,6.16,2.86,6.16,6.38s-2.76,6.38-6.16,6.38c-3.4,0-6.16-2.86-6.16-6.38S292.06,298.72,295.47,298.72z
							 M325.48,520.34c-3.4,0-6.16-2.86-6.16-6.38c0-3.53,2.76-6.38,6.16-6.38c3.4,0,6.16,2.86,6.16,6.38
							C331.64,517.49,328.89,520.34,325.48,520.34z"/>
					</g>
				</g>
			</g>
		</g>
	</g>
	<g>
		<g>
			<g>
				<linearGradient id="SVGID_19_" gradientUnits="userSpaceOnUse" x1="669.8124" y1="614.0643" x2="164.1008" y2="145.655">
					<stop  offset="0" style="stop-color:#94FEA2"/>
					<stop  offset="1" style="stop-color:#00FF41"/>
				</linearGradient>
				<path class="st18" d="M116.11,519.21l-5.47-14.98l7.56-6.72l-3.76-10.31L74.91,524.7l0.18,0.49l54.41,3.25l-3.2-8.78
					L116.11,519.21z M94.83,518.27l9.4-8.37l3.25,8.9L94.83,518.27z"/>
				<linearGradient id="SVGID_20_" gradientUnits="userSpaceOnUse" x1="669.8124" y1="614.0643" x2="164.1008" y2="145.655">
					<stop  offset="0" style="stop-color:#94FEA2"/>
					<stop  offset="1" style="stop-color:#00FF41"/>
				</linearGradient>
				<polygon class="st19" points="103.09,225.23 128.8,238.54 86,253.97 85.82,254.32 130.06,277.6 134.5,269.08 109.25,256.02 
					151.68,240.31 151.8,240.08 107.5,216.77 				"/>
				<linearGradient id="SVGID_21_" gradientUnits="userSpaceOnUse" x1="669.8124" y1="614.0643" x2="164.1008" y2="145.655">
					<stop  offset="0" style="stop-color:#94FEA2"/>
					<stop  offset="1" style="stop-color:#00FF41"/>
				</linearGradient>
				<path class="st20" d="M170.4,173.63c-3.33-2.74-7.01-4.61-11.06-5.61c-4.05-0.99-8.23-0.7-12.56,0.86
					c-4.33,1.57-8.43,4.74-12.29,9.51l-9.05,11.17l37.11,30.61l10.54-13c2.77-3.42,4.58-7.16,5.44-11.23
					c0.86-4.06,0.61-8.07-0.74-12C176.42,180,173.96,176.56,170.4,173.63z M164.98,202.62l-3.54,4.37l-23.04-19l4.86-5.99
					c1.18-1.45,2.77-2.73,4.77-3.81c2-1.09,4.38-1.53,7.13-1.32c2.75,0.21,5.6,1.53,8.56,3.97c3.66,3.02,5.57,6.45,5.7,10.29
					C169.56,194.96,168.08,198.79,164.98,202.62z"/>
				<linearGradient id="SVGID_22_" gradientUnits="userSpaceOnUse" x1="669.8124" y1="614.0643" x2="164.1008" y2="145.655">
					<stop  offset="0" style="stop-color:#94FEA2"/>
					<stop  offset="1" style="stop-color:#00FF41"/>
				</linearGradient>
				<polygon class="st21" points="717.27,345.24 726.16,343.07 720.81,321.1 758.65,311.85 756.4,302.65 709.68,314.07 				"/>
				<linearGradient id="SVGID_23_" gradientUnits="userSpaceOnUse" x1="669.8124" y1="614.0643" x2="164.1008" y2="145.655">
					<stop  offset="0" style="stop-color:#94FEA2"/>
					<stop  offset="1" style="stop-color:#00FF41"/>
				</linearGradient>
				<path class="st22" d="M728.71,366.6c-2.67,1.88-4.69,4.34-6.07,7.39c-1.38,3.05-1.97,6.35-1.78,9.92
					c0.2,3.57,1.15,6.79,2.85,9.69c1.71,2.89,3.99,5.13,6.85,6.71c2.86,1.58,6,2.27,9.44,2.07l30.47-1.77l-0.51-9.33l-30.27,1.75
					c-1.52,0.09-3-0.27-4.45-1.08c-1.44-0.81-2.64-1.97-3.6-3.49c-0.96-1.52-1.49-3.21-1.59-5.08c-0.1-1.74,0.25-3.4,1.04-4.97
					c0.79-1.57,1.85-2.86,3.19-3.85c1.34-0.99,2.77-1.54,4.3-1.62l30.27-1.75l-0.52-9.46l-30.47,1.77
					C734.43,363.68,731.38,364.72,728.71,366.6z"/>
				<linearGradient id="SVGID_24_" gradientUnits="userSpaceOnUse" x1="669.8124" y1="614.0643" x2="164.1008" y2="145.655">
					<stop  offset="0" style="stop-color:#94FEA2"/>
					<stop  offset="1" style="stop-color:#00FF41"/>
				</linearGradient>
				<path class="st23" d="M220.76,136.58l-19.33-23.62l-7.21,5.95l19.2,23.47c0.96,1.18,1.54,2.59,1.74,4.24
					c0.19,1.65-0.04,3.31-0.7,4.98c-0.66,1.67-1.71,3.11-3.15,4.3c-1.34,1.11-2.88,1.81-4.61,2.11c-1.73,0.3-3.38,0.2-4.97-0.3
					c-1.59-0.5-2.86-1.33-3.83-2.51l-19.2-23.47l-7.31,6.03l19.33,23.62c2.18,2.66,4.81,4.52,7.89,5.56
					c3.08,1.05,6.25,1.22,9.51,0.53c3.26-0.69,6.27-2.17,9.03-4.45c2.75-2.27,4.79-4.96,6.11-8.06c1.32-3.1,1.78-6.27,1.37-9.52
					C224.24,142.21,222.94,139.25,220.76,136.58z"/>
				<linearGradient id="SVGID_25_" gradientUnits="userSpaceOnUse" x1="669.8124" y1="614.0643" x2="164.1008" y2="145.655">
					<stop  offset="0" style="stop-color:#94FEA2"/>
					<stop  offset="1" style="stop-color:#00FF41"/>
				</linearGradient>
				<polygon class="st24" points="108.69,460.71 80.62,465.22 105.61,427.34 105.57,427.08 56.09,434.68 57.52,444.11 86.11,439.53 
					60.66,477.41 60.72,477.8 110.13,470.21 				"/>
				<linearGradient id="SVGID_26_" gradientUnits="userSpaceOnUse" x1="669.8124" y1="614.0643" x2="164.1008" y2="145.655">
					<stop  offset="0" style="stop-color:#94FEA2"/>
					<stop  offset="1" style="stop-color:#00FF41"/>
				</linearGradient>
				<polygon class="st25" points="78.31,374.24 107.67,365.07 59.52,342.67 58.66,352.83 84.63,363.06 57.07,371.72 56.28,381.09 
					66.05,378.06 83.74,386.79 55.19,394.05 54.26,405.12 105.73,389.76 				"/>
				<linearGradient id="SVGID_27_" gradientUnits="userSpaceOnUse" x1="669.8124" y1="614.0643" x2="164.1008" y2="145.655">
					<stop  offset="0" style="stop-color:#94FEA2"/>
					<stop  offset="1" style="stop-color:#00FF41"/>
				</linearGradient>
				<polygon class="st26" points="122.4,296.16 113.64,293.54 106.47,316.7 96.51,313.73 102.62,294 93.85,291.38 87.75,311.11 
					77.92,308.17 84.81,285.88 76.05,283.26 66.35,314.6 112.44,328.37 				"/>
				<linearGradient id="SVGID_28_" gradientUnits="userSpaceOnUse" x1="669.8124" y1="614.0643" x2="164.1008" y2="145.655">
					<stop  offset="0" style="stop-color:#94FEA2"/>
					<stop  offset="1" style="stop-color:#00FF41"/>
				</linearGradient>
				<polygon class="st27" points="417.26,92.34 450.9,94.72 451.5,85.59 427.31,83.88 427.99,73.51 448.59,74.97 449.18,65.84 
					428.58,64.38 429.25,54.14 452.53,55.79 453.12,46.66 420.4,44.35 				"/>
				<linearGradient id="SVGID_29_" gradientUnits="userSpaceOnUse" x1="669.8124" y1="614.0643" x2="164.1008" y2="145.655">
					<stop  offset="0" style="stop-color:#94FEA2"/>
					<stop  offset="1" style="stop-color:#00FF41"/>
				</linearGradient>
				<polygon class="st28" points="257.64,79.53 271.23,105.09 227.19,93.38 226.84,93.56 250.03,137.85 258.53,133.38 
					245.17,108.29 289.06,119.56 289.29,119.44 266.08,75.09 				"/>
				<linearGradient id="SVGID_30_" gradientUnits="userSpaceOnUse" x1="669.8124" y1="614.0643" x2="164.1008" y2="145.655">
					<stop  offset="0" style="stop-color:#94FEA2"/>
					<stop  offset="1" style="stop-color:#00FF41"/>
				</linearGradient>
				<polygon class="st29" points="712.42,264.06 699.65,285.92 704.52,296.91 720.72,267.96 748.49,277.41 743.52,266.17 
					720.96,258.99 718.71,258.42 721.03,257.68 736.69,250.76 732.8,241.98 688.8,261.42 692.69,270.2 709.31,262.86 				"/>
				<linearGradient id="SVGID_31_" gradientUnits="userSpaceOnUse" x1="669.8124" y1="614.0643" x2="164.1008" y2="145.655">
					<stop  offset="0" style="stop-color:#94FEA2"/>
					<stop  offset="1" style="stop-color:#00FF41"/>
				</linearGradient>
				<path class="st30" d="M678.01,226.75c-1.65-2.41-2.55-4.88-2.71-7.41c-0.15-2.53,0.4-4.94,1.66-7.22
					c1.26-2.28,3.17-4.3,5.72-6.04c2.34-1.59,4.83-2.53,7.47-2.8c2.64-0.27,5.12,0.09,7.45,1.09c2.32,1,4.18,2.5,5.56,4.52
					c2.05,2.98,2.96,6.63,2.75,10.94l9.51-1.97c-0.09-2.21-0.51-4.55-1.27-7.04c-0.76-2.49-1.96-4.94-3.61-7.34
					c-2.61-3.81-5.79-6.57-9.53-8.29c-3.74-1.72-7.74-2.32-11.98-1.8c-4.24,0.52-8.36,2.14-12.36,4.86
					c-3.64,2.48-6.42,5.56-8.35,9.25c-1.93,3.69-2.75,7.67-2.45,11.96c0.3,4.28,1.86,8.48,4.7,12.62c1.78,2.59,3.83,4.69,6.16,6.32
					c2.33,1.63,4.26,2.66,5.77,3.1l4.8-8.02c-1.48-0.31-3.07-1.02-4.76-2.14C680.85,230.21,679.34,228.69,678.01,226.75z"/>
				<linearGradient id="SVGID_32_" gradientUnits="userSpaceOnUse" x1="669.8124" y1="614.0643" x2="164.1008" y2="145.655">
					<stop  offset="0" style="stop-color:#94FEA2"/>
					<stop  offset="1" style="stop-color:#00FF41"/>
				</linearGradient>
				<path class="st31" d="M743.39,503.2c-2.88-3.42-6.96-6.09-12.24-8.02c-4.22-1.54-8.34-1.93-12.37-1.18
					c-4.03,0.75-7.66,2.59-10.88,5.52c-3.22,2.93-5.73,6.77-7.53,11.54c-0.66,1.75-1.14,3.79-1.43,6.12
					c-0.3,2.33-0.38,4.52-0.25,6.59c0.13,2.06,0.43,3.58,0.91,4.54l19.09,6.98l6.32-16.75l-8.59-3.14l-2.93,7.76l-5.46-2
					c-0.27-1.63,0.12-3.83,1.16-6.6c1.09-2.89,2.62-5.27,4.58-7.13c1.96-1.86,4.21-3.04,6.75-3.55c2.54-0.51,5.21-0.26,7.99,0.76
					c4.83,1.76,7.98,4.39,9.46,7.88c1.48,3.48,1.3,7.67-0.55,12.57c-0.52,1.38-1.45,3.01-2.78,4.86c-1.33,1.86-2.54,3.26-3.64,4.2
					l7.2,5.9c1.67-1.48,3.27-3.3,4.79-5.48c1.52-2.18,2.8-4.64,3.83-7.37c1.6-4.24,2.15-8.45,1.65-12.62
					C747.96,510.41,746.27,506.62,743.39,503.2z"/>
				<linearGradient id="SVGID_33_" gradientUnits="userSpaceOnUse" x1="669.8124" y1="614.0643" x2="164.1008" y2="145.655">
					<stop  offset="0" style="stop-color:#94FEA2"/>
					<stop  offset="1" style="stop-color:#00FF41"/>
				</linearGradient>
				<polygon class="st32" points="771.05,432.57 721.58,425.31 720.12,434.8 748.28,438.74 713.09,467.58 713.05,467.84 
					762.58,475.11 764.03,465.68 735.35,461.67 770.99,432.96 				"/>
				<linearGradient id="SVGID_34_" gradientUnits="userSpaceOnUse" x1="669.8124" y1="614.0643" x2="164.1008" y2="145.655">
					<stop  offset="0" style="stop-color:#94FEA2"/>
					<stop  offset="1" style="stop-color:#00FF41"/>
				</linearGradient>
				<polygon class="st33" points="672.39,156.75 636.97,189.29 643.43,196.23 678.85,163.68 				"/>
				<linearGradient id="SVGID_35_" gradientUnits="userSpaceOnUse" x1="669.8124" y1="614.0643" x2="164.1008" y2="145.655">
					<stop  offset="0" style="stop-color:#94FEA2"/>
					<stop  offset="1" style="stop-color:#00FF41"/>
				</linearGradient>
				<path class="st34" d="M393.5,72.46c-1.25-1.76-2.74-3.09-4.45-3.99c-1.71-0.9-3.74-1.65-6.08-2.25c-2.88-0.76-5.22-1.64-7-2.62
					c-1.79-0.98-2.76-2.23-2.91-3.75c-0.17-1.65,0.28-2.94,1.35-3.88c1.06-0.94,2.64-1.51,4.72-1.72c3.08-0.31,6.81,0.48,11.21,2.36
					l2.84-7.57c-2.4-1.25-4.84-2.15-7.31-2.72c-2.47-0.56-5.48-0.67-9.03-0.32c-4.49,0.67-7.96,2.39-10.41,5.17
					c-2.45,2.78-3.47,6.23-3.05,10.35c0.29,2.82,1.19,5.09,2.7,6.82c1.51,1.73,3.23,3.01,5.15,3.82c1.92,0.82,4.3,1.63,7.15,2.44
					c4.82,1.36,7.36,3.27,7.61,5.74c0.19,1.91-0.4,3.36-1.79,4.35c-1.39,0.99-3.08,1.59-5.07,1.79c-1.69,0.17-3.64-0.03-5.84-0.6
					c-2.2-0.57-4.19-1.38-5.96-2.43l-3.41,7.76c2.6,1.49,5.36,2.52,8.26,3.08c2.9,0.56,5.79,0.71,8.65,0.42
					c3.43-0.34,6.31-1.25,8.66-2.73c2.35-1.48,4.05-3.34,5.12-5.57c1.06-2.23,1.47-4.58,1.22-7.05
					C395.53,76.52,394.75,74.22,393.5,72.46z"/>
				<linearGradient id="SVGID_36_" gradientUnits="userSpaceOnUse" x1="669.8124" y1="614.0643" x2="164.1008" y2="145.655">
					<stop  offset="0" style="stop-color:#94FEA2"/>
					<stop  offset="1" style="stop-color:#00FF41"/>
				</linearGradient>
				<polygon class="st35" points="653.29,136.78 645.11,130.69 622.39,147.09 629.91,119.37 622.36,113.75 619.67,123.56 
					602.69,133.81 611.93,105.98 603.02,99.34 588.3,150.71 616.3,135.88 608.24,165.4 				"/>
				<linearGradient id="SVGID_37_" gradientUnits="userSpaceOnUse" x1="669.8124" y1="614.0643" x2="164.1008" y2="145.655">
					<stop  offset="0" style="stop-color:#94FEA2"/>
					<stop  offset="1" style="stop-color:#00FF41"/>
				</linearGradient>
				<path class="st36" d="M323.1,79.52l2.51,8.8l7.98-2.28l1.6,5.59c-1.15,1.19-3.16,2.19-6.01,3c-2.98,0.85-5.79,1.04-8.43,0.57
					c-2.65-0.47-4.92-1.57-6.83-3.32c-1.9-1.74-3.26-4.04-4.08-6.89c-1.41-4.94-1.15-9.05,0.8-12.32c1.94-3.27,5.43-5.62,10.46-7.06
					c1.43-0.41,3.28-0.63,5.55-0.67c2.28-0.04,4.12,0.11,5.53,0.43l0.53-9.32c-2.17-0.47-4.58-0.66-7.24-0.59
					c-2.65,0.08-5.38,0.51-8.19,1.31c-4.36,1.24-8.07,3.31-11.14,6.2c-3.07,2.89-5.14,6.52-6.21,10.87
					c-1.07,4.36-0.83,9.24,0.72,14.64c1.23,4.32,3.34,7.87,6.31,10.67c2.97,2.8,6.59,4.62,10.84,5.47
					c4.25,0.85,8.83,0.57,13.73-0.82c1.8-0.51,3.73-1.35,5.78-2.5c2.05-1.15,3.87-2.39,5.46-3.73c1.59-1.34,2.63-2.48,3.13-3.44
					l-5.58-19.54L323.1,79.52z"/>
				<linearGradient id="SVGID_38_" gradientUnits="userSpaceOnUse" x1="669.8124" y1="614.0643" x2="164.1008" y2="145.655">
					<stop  offset="0" style="stop-color:#94FEA2"/>
					<stop  offset="1" style="stop-color:#00FF41"/>
				</linearGradient>
				<polygon class="st37" points="547.69,81.86 557.82,86.73 541.02,121.87 549.56,125.97 566.36,90.84 576.9,95.91 580.85,87.65 
					551.64,73.61 				"/>
				<linearGradient id="SVGID_39_" gradientUnits="userSpaceOnUse" x1="669.8124" y1="614.0643" x2="164.1008" y2="145.655">
					<stop  offset="0" style="stop-color:#94FEA2"/>
					<stop  offset="1" style="stop-color:#00FF41"/>
				</linearGradient>
				<polygon class="st38" points="508.71,88.38 484.25,49.65 483.87,49.54 471.03,97.86 480.29,100.41 487.41,72.89 512.05,111.2 
					512.3,111.26 525.16,62.89 515.96,60.35 				"/>
			</g>
		</g>
	</g>
	<g>
		<path class="st45" d="M120.35,576.8c1.93-0.12,3.76,0.23,5.49,1.05c1.72,0.82,3.13,2.05,4.21,3.68c1.08,1.63,1.68,3.41,1.77,5.32
			c0.1,1.92-0.28,3.74-1.14,5.48c-0.86,1.74-2.11,3.14-3.75,4.22c-1.68,1.1-3.46,1.7-5.36,1.8c-1.9,0.1-3.7-0.29-5.41-1.18
			c-1.71-0.88-3.11-2.14-4.19-3.77c-1.08-1.63-1.69-3.39-1.81-5.26c-0.12-1.87,0.24-3.66,1.07-5.36c0.83-1.7,2.09-3.09,3.77-4.19
			C116.63,577.52,118.42,576.92,120.35,576.8z"/>
		<path class="st45" d="M179.48,678.05c-1.99-0.62-4.02-1.49-6.1-2.6c-2.08-1.11-3.82-2.28-5.23-3.52
			c-3.82-3.37-6.52-7.07-8.08-11.1c-1.56-4.02-1.96-8.03-1.18-12.02c0.78-3.99,2.67-7.65,5.67-10.99c3.76-4.18,7.78-6.98,12.05-8.41
			c4.27-1.43,8.47-1.62,12.57-0.58c4.11,1.04,7.86,3.06,11.25,6.06c2.19,1.93,4.03,3.99,5.52,6.18c1.49,2.19,2.62,4.32,3.39,6.39
			l-8.21,4.52c-0.48-1.36-1.35-2.98-2.6-4.87c-1.26-1.89-2.44-3.33-3.55-4.31c-3.92-3.46-7.79-5.13-11.61-5.02
			c-3.82,0.11-7.46,2.08-10.9,5.9c-1.98,2.2-3.2,4.57-3.66,7.09c-0.46,2.53-0.18,5.03,0.85,7.5c1.03,2.47,2.7,4.73,5.02,6.78
			c2.22,1.96,4.15,3.11,5.78,3.45l3.89-4.32l-6.22-5.49l6.12-6.8l13.42,11.85l-13.6,15.1C183.01,678.93,181.47,678.67,179.48,678.05
			z"/>
		<path class="st45" d="M237.7,663.27l-26.77,39.96l-7.88-5.26l26.77-39.96L237.7,663.27z"/>
		<path class="st45" d="M285.42,689.86l-4.04,8.21l-20.83-10.51l-4.53,9.21l18.44,9.3l-4.04,8.21l-18.44-9.3l-4.59,9.32l21.65,10.92
			l-4.04,8.21l-30.11-15.18l21.23-43.16L285.42,689.86z"/>
		<path class="st45" d="M315.33,750.99l-5.34-17.61l-6.07-1.84l-4.35,14.66l-9.07-2.76l13.68-46.11l13.94,4.24
			c5.71,1.74,9.73,4.47,12.05,8.21c2.32,3.74,2.77,8.01,1.35,12.81c-0.84,2.84-2.23,5.32-4.15,7.45c-1.92,2.12-4.33,3.52-7.21,4.19
			l5.73,19.98L315.33,750.99z M306.52,722.77l6.44,1.96c2.46,0.75,4.47,0.57,6.02-0.53c1.55-1.1,2.58-2.48,3.07-4.15
			c0.49-1.67,0.49-3.41-0.02-5.23c-0.51-1.82-2.14-3.14-4.89-3.98l-6.5-1.98L306.52,722.77z"/>
		<path class="st45" d="M366.03,712.43l-4.74,38.66l22.43,2.84l-1.11,9.08l-31.83-4.03l5.86-47.74L366.03,712.43z"/>
		<path class="st45" d="M417.42,715.54l0.41,48.09l-9.48,0.06l-0.41-48.09L417.42,715.54z"/>
		<path class="st45" d="M482.18,708.09l8,49.41l-0.26,0.04l-38.08-24.62l4.74,28.03l-9.48,1.53l-7.99-49.35l0.39-0.06l38.09,25.09
			l-4.82-28.54L482.18,708.09z"/>
		<path class="st45" d="M551.91,732.83c-1.48,1.46-3.2,2.84-5.15,4.15c-1.95,1.31-3.81,2.29-5.56,2.95
			c-4.78,1.78-9.32,2.42-13.62,1.91c-4.3-0.51-8.05-2.04-11.22-4.6c-3.18-2.56-5.55-5.94-7.11-10.14
			c-1.96-5.27-2.57-10.12-1.85-14.55c0.72-4.43,2.5-8.21,5.34-11.34c2.84-3.13,6.38-5.48,10.62-7.07c2.73-1.02,5.42-1.67,8.06-1.96
			c2.64-0.29,5.05-0.28,7.26,0.01l0.19,9.34c-1.43-0.21-3.27-0.21-5.54,0.01c-2.27,0.22-4.09,0.59-5.48,1.1
			c-4.9,1.83-8.19,4.45-9.87,7.87c-1.68,3.42-1.63,7.54,0.16,12.35c1.03,2.78,2.56,4.96,4.59,6.55c2.03,1.59,4.38,2.51,7.06,2.77
			c2.68,0.26,5.46-0.15,8.36-1.24c2.78-1.04,4.69-2.19,5.75-3.47l-2.03-5.45l-7.78,2.9l-3.19-8.58l16.78-6.26l7.08,19.05
			C554.34,730.14,553.39,731.37,551.91,732.83z"/>
		<path class="st45" d="M585.96,662.71l4.64,7.88l-20.06,11.92l5.2,8.84l17.75-10.55l4.64,7.89l-17.75,10.55l5.27,8.96l20.84-12.38
			l4.64,7.89l-28.99,17.22l-24.4-41.45L585.96,662.71z"/>
		<path class="st45" d="M653.04,670.74l-17.55-5.1l-4.81,4.12l9.86,11.69l-7.2,6.16l-31.01-36.77l11.07-9.48
			c4.53-3.88,8.98-5.79,13.35-5.71c4.37,0.08,8.17,2.03,11.4,5.86c1.91,2.26,3.23,4.79,3.96,7.58c0.73,2.79,0.59,5.59-0.4,8.39
			l19.74,6.07L653.04,670.74z M624.77,662.77l5.11-4.38c1.95-1.67,2.89-3.47,2.82-5.38c-0.08-1.91-0.68-3.54-1.8-4.87
			c-1.12-1.33-2.58-2.28-4.37-2.84c-1.79-0.56-3.77,0.09-5.95,1.96l-5.16,4.42L624.77,662.77z"/>
		<path class="st45" d="M680.43,602.78c-0.81-1.76-1.14-3.59-0.99-5.49c0.15-1.9,0.79-3.65,1.93-5.25c1.13-1.6,2.58-2.79,4.34-3.57
			c1.76-0.78,3.6-1.08,5.53-0.9c1.93,0.18,3.69,0.84,5.29,1.98c1.63,1.17,2.83,2.62,3.6,4.35c0.77,1.73,1.06,3.56,0.85,5.47
			c-0.21,1.91-0.88,3.67-2.02,5.27c-1.13,1.6-2.56,2.79-4.26,3.58c-1.71,0.79-3.5,1.1-5.39,0.93c-1.88-0.17-3.64-0.84-5.27-2
			C682.44,605.99,681.24,604.54,680.43,602.78z"/>
	</g>
</g>
</svg>
